# xmcd CD database file generated by Grip 3.1.4
# 
# Track frame offsets:
#       150
#       18515
#       41120
#       54770
#       65430
#       77412
#       92297
#       104545
#       117367
#       133452
#       151687
#       168810
#       181177
#       191585
# 
# Disc length: 2739 seconds
# 
# Revision: 1
# Processed by: cddbd v1.5.1PL0 Copyright (c) Steve Scherf et al.
# Submitted via: Grip 3.1.4
# 
DISCID=a90ab10e
DTITLE=King Biscuit Boy - Richard Newell A.K.A. King Biscuit Boy
DYEAR=1989
DGENRE=Blues
TTITLE0=I Tried
TTITLE1=Blue Light Boogie
TTITLE2=The Comeback
TTITLE3=Castin' My Spell
TTITLE4=Close Up The Back Door
TTITLE5=Operator
TTITLE6=Early In The Morning
TTITLE7=Hattie Malatti
TTITLE8=One Scotch, One Bourbon, One Beer
TTITLE9=Ashamed Of Myself
TTITLE10=Don't Let Daddy Slow-Walk You Down
TTITLE11=She Knocks Me Out
TTITLE12=Step Back Baby
TTITLE13=Every Night Of The Week
EXTD=
EXTT0=
EXTT1=
EXTT2=
EXTT3=
EXTT4=
EXTT5=
EXTT6=
EXTT7=
EXTT8=
EXTT9=
EXTT10=
EXTT11=
EXTT12=
EXTT13=
PLAYORDER=
